<?xml version="1.0" encoding="UTF-8" standalone="no"?>
<!-- Created with Inkscape (http://www.inkscape.org/) -->

<svg
	width="512"
	height="512"
	viewBox="0 0 512 512"
	version="1.1"
	id="svg1"
	inkscape:version="1.3.2 (091e20e, 2023-11-25, custom)"
	sodipodi:docname="gellylogo.svg"
	inkscape:export-filename="gellylogo.jpg"
	inkscape:export-xdpi="96"
	inkscape:export-ydpi="96"
	xmlns:inkscape="http://www.inkscape.org/namespaces/inkscape"
	xmlns:sodipodi="http://sodipodi.sourceforge.net/DTD/sodipodi-0.dtd"
	xmlns:xlink="http://www.w3.org/1999/xlink"
	xmlns="http://www.w3.org/2000/svg"
	xmlns:svg="http://www.w3.org/2000/svg">
	<sodipodi:namedview
		id="namedview1"
		pagecolor="#505050"
		bordercolor="#ffffff"
		borderopacity="1"
		inkscape:showpageshadow="0"
		inkscape:pageopacity="0"
		inkscape:pagecheckerboard="1"
		inkscape:deskcolor="#505050"
		inkscape:document-units="px"
		inkscape:zoom="0.84082032"
		inkscape:cx="259.27061"
		inkscape:cy="396.63647"
		inkscape:window-width="1920"
		inkscape:window-height="1057"
		inkscape:window-x="-8"
		inkscape:window-y="-8"
		inkscape:window-maximized="1"
		inkscape:current-layer="layer1"
		inkscape:export-bgcolor="#ffffffff"/>
	<defs
		id="defs1">
		<linearGradient
			id="linearGradient121"
			inkscape:collect="always">
			<stop
				style="stop-color:#ed0000;stop-opacity:1;"
				offset="0"
				id="stop121"/>
			<stop
				style="stop-color:#af0000;stop-opacity:1;"
				offset="1"
				id="stop122"/>
		</linearGradient>
		<inkscape:perspective
			sodipodi:type="inkscape:persp3d"
			inkscape:vp_x="45.06187 : 286.66912 : 1"
			inkscape:vp_y="0 : 361.0515 : 0"
			inkscape:vp_z="712.7507 : 272.37258 : 1"
			inkscape:persp3d-origin="295.22952 : 240.72188 : 1"
			id="perspective1"/>
		<filter
			style="color-interpolation-filters:sRGB;"
			inkscape:label="Drop Shadow"
			id="filter108"
			x="-0.15580456"
			y="-0.21670812"
			width="1.3116091"
			height="1.7501129">
			<feFlood
				result="flood"
				in="SourceGraphic"
				flood-opacity="0.662745"
				flood-color="rgb(233,41,41)"
				id="feFlood107"/>
			<feGaussianBlur
				result="blur"
				in="SourceGraphic"
				stdDeviation="4.863222"
				id="feGaussianBlur107"/>
			<feOffset
				result="offset"
				in="blur"
				dx="0.000000"
				dy="14.437690"
				id="feOffset107"/>
			<feComposite
				result="comp1"
				operator="in"
				in="flood"
				in2="offset"
				id="feComposite107"/>
			<feComposite
				result="fbSourceGraphic"
				operator="over"
				in="SourceGraphic"
				in2="comp1"
				id="feComposite108"/>
			<feColorMatrix
				result="fbSourceGraphicAlpha"
				in="fbSourceGraphic"
				values="0 0 0 -1 0 0 0 0 -1 0 0 0 0 -1 0 0 0 0 1 0"
				id="feColorMatrix115"/>
			<feFlood
				id="feFlood115"
				result="flood"
				in="fbSourceGraphic"
				flood-opacity="1.000000"
				flood-color="rgb(75,0,0)"/>
			<feGaussianBlur
				id="feGaussianBlur115"
				result="blur"
				in="fbSourceGraphic"
				stdDeviation="4.863222"/>
			<feOffset
				id="feOffset115"
				result="offset"
				in="blur"
				dx="0.000000"
				dy="21.124620"/>
			<feComposite
				id="feComposite115"
				result="comp1"
				operator="in"
				in="flood"
				in2="offset"/>
			<feComposite
				id="feComposite116"
				result="fbSourceGraphic"
				operator="over"
				in="fbSourceGraphic"
				in2="comp1"/>
			<feColorMatrix
				result="fbSourceGraphicAlpha"
				in="fbSourceGraphic"
				values="0 0 0 -1 0 0 0 0 -1 0 0 0 0 -1 0 0 0 0 1 0"
				id="feColorMatrix120"/>
			<feFlood
				id="feFlood120"
				result="flood"
				in="fbSourceGraphic"
				flood-opacity="1.000000"
				flood-color="rgb(0,0,0)"/>
			<feGaussianBlur
				id="feGaussianBlur120"
				result="blur"
				in="fbSourceGraphic"
				stdDeviation="10.942249"/>
			<feOffset
				id="feOffset120"
				result="offset"
				in="blur"
				dx="0.000000"
				dy="36.930092"/>
			<feComposite
				id="feComposite120"
				result="comp1"
				operator="in"
				in="flood"
				in2="offset"/>
			<feComposite
				id="feComposite121"
				result="comp2"
				operator="over"
				in="fbSourceGraphic"
				in2="comp1"/>
		</filter>
		<linearGradient
			inkscape:collect="always"
			xlink:href="#linearGradient121"
			id="linearGradient122"
			x1="259.01953"
			y1="210.24313"
			x2="252.29176"
			y2="348.16263"
			gradientUnits="userSpaceOnUse"
			gradientTransform="translate(0.5852306,-36.24621)"/>
	</defs>
	<g
		inkscape:label="Layer 1"
		inkscape:groupmode="layer"
		id="layer1">
		<path
			d="m 307.69685,106.45918 -6.58203,182.36523 c 8.00976,-4.68619 16.01953,-9.37239 24.02929,-14.05859 1.49479,-56.48763 2.98959,-112.97526 4.48438,-169.46289 -7.31055,0.38542 -14.6211,0.77083 -21.93164,1.15625 z m -31.20313,1.22851 c -3.11067,65.33073 -6.22135,130.66146 -9.33203,195.99219 7.92774,-3.0983 15.85547,-6.19661 23.7832,-9.29492 2.49154,-62.50065 4.98308,-125.0013 7.47461,-187.50195 -7.30859,0.26823 -14.61718,0.53646 -21.92578,0.80468 z m 134.96875,26.48633 c -6.51692,0.57552 -13.03385,1.15104 -19.55078,1.72657 -0.70819,26.55399 -1.26703,53.23271 -5.62305,79.49609 -4.57176,8.04354 -16.40182,10.6541 -23.92187,5.25391 -0.49544,-26.46485 -0.99089,-52.92969 -1.48633,-79.39454 l -19.49805,-0.41601 c -2.23234,34.31149 -1.90644,68.814 1.51368,103.03711 8.15622,13.33083 30.67486,12.99778 38.4375,-0.56446 1.59496,-2.30879 3.67817,-4.5551 6.49609,-5.25976 4.70664,8.03765 1.36507,17.80145 -2.70965,25.35838 -3.52914,7.20181 -8.57197,13.53701 -14.01887,19.37599 -6.31364,1.77261 -13.50051,-2.86634 -14.59375,-9.30859 -7.35136,-4.00587 -16.44286,1.21059 -19.6468,8.24405 -7.75732,11.48636 -5.36953,29.54447 6.84891,37.0075 10.55854,5.9111 24.32915,1.29176 31.80227,-7.49416 6.18566,-7.51047 12.09405,-15.29548 17.31984,-23.50739 18.29593,-29.7965 25.07113,-65.85767 21.39276,-100.44181 -0.44798,-17.37617 -0.89595,-34.75233 -1.34393,-52.1285 -0.33971,-0.4459 -0.73044,-1.19688 -1.41797,-0.98438 z m -275.09375,4.69141 c -24.9761,15.47498 -32.12365,16.61957 -36.759768,60.70312 4.335988,20.95795 14.076678,41.6167 30.923828,55.36133 6.26708,3.76292 14.62267,4.23762 20.98633,0.43946 4.57184,2.04403 3.53402,7.85733 3.22062,11.88794 -0.93133,11.66177 -7.41057,22.85859 -17.36124,29.1062 -12.33022,-6.62707 -17.22705,-4.46979 -17.89886,-18.4647 -3.38688,-6.15035 -17.11519,-7.33246 -22.448527,0.53274 -2.212255,30.18765 12.437517,32.92647 34.257537,53.79133 15.15439,6.73523 35.14319,-4.53499 36.75977,-21.1543 10.47796,-38.82858 9.43663,-79.36374 12.16405,-119.16671 0.62696,-13.71722 1.25391,-27.43443 1.88087,-41.15165 -5.37671,-7.26846 -16.82325,-8.89523 -24.02344,-3.43554 -8.07035,-0.50213 -13.423,-8.82336 -21.70117,-8.44922 z m 92.49219,6.82422 c -26.66845,6.60597 -45.10514,35.58486 -40.46094,62.54297 2.0981,31.59527 6.28048,63.96315 20.76847,92.5515 5.0367,8.84118 18.26636,12.92216 26.54599,6.14967 13.89412,-13.35819 20.94152,-32.2122 24.34869,-50.81167 0.25256,-6.93755 -7.07977,-13.59886 -13.97096,-10.96607 -5.62363,1.35342 -8.39425,6.9284 -12.13314,10.68303 -9.62103,6.27761 -24.62561,-1.43509 -24.71269,-13.05264 -2.01159,-12.59109 10.51353,-24.99134 23.10416,-22.69645 9.91698,0.02 19.88945,2.47582 29.75847,0.50981 5.46489,-7.47869 3.49817,-17.19378 3.76439,-25.8174 -0.86467,-15.79723 -5.93997,-32.64201 -18.68796,-42.90665 -5.21073,-3.96855 -11.71051,-6.49456 -18.32448,-6.1861 z m -87.64648,19.0918 c 20.13512,10.12745 26.5833,39.72191 12.375,57.25585 -6.25014,7.46138 -19.54904,6.85877 -24.75223,-1.5234 -11.80829,-15.77119 -9.08419,-40.60137 6.4666,-52.92012 1.78063,-1.1729 3.5788,-3.18247 5.91063,-2.81233 z m 90.79882,7.64453 c 9.70562,3.22651 15.72746,14.42224 13.4336,24.32421 -10.80015,-0.0508 -21.5962,-0.36507 -32.39258,-0.6289 -2.88037,-11.3831 6.97682,-24.42878 18.95898,-23.69531 z"
			id="text71"
			style="font-size:170.667px;font-family:Coolvetica;-inkscape-font-specification:Coolvetica;fill:url(#linearGradient122);fill-opacity:1;filter:url(#filter108)"
			aria-label="gelly"
			sodipodi:nodetypes="ccccccccccccccccccccccccccccccccccccccccccccccccccccccccccccccccc"
			inkscape:label="text71"/>
	</g>
</svg>
